<svg width="133" height="132" viewBox="0 0 133 132" fill="none" xmlns="http://www.w3.org/2000/svg">
<path d="M35.3574 31.3576V58.0724L48.7148 71.4298L48.7148 60.7438L43.3718 55.4009V34.029L48.7148 28.6861L48.7148 18.0002L35.3574 31.3576Z" fill="#689F63"/>
<path d="M97.9636 58.0722L97.9636 31.3574L84.6062 18L84.6062 28.686L89.9492 34.0289L89.9492 55.4008L84.6062 60.7437L84.6062 71.4297L97.9636 58.0722Z" fill="#689F63"/>
<path d="M66.8603 63.715C66.3782 63.715 65.8994 63.5885 65.4767 63.3451L61.0728 60.7378C60.415 60.37 60.736 60.2399 60.9529 60.1649C61.8299 59.8578 62.0079 59.7885 62.944 59.2569C63.0424 59.2007 63.1712 59.2206 63.2719 59.28L66.6552 61.2876C66.7774 61.3537 66.9507 61.3537 67.064 61.2876L80.2556 53.6731C80.3778 53.6038 80.4571 53.4618 80.4571 53.3165V38.0941C80.4571 37.9422 80.3778 37.8068 80.253 37.7309L67.0666 30.123C66.9445 30.0503 66.7827 30.0503 66.6605 30.123L53.4768 37.7309C53.349 37.8035 53.2677 37.9455 53.2677 38.0908V53.3132C53.2677 53.4585 53.347 53.5972 53.4725 53.6665L57.0849 55.7534C59.0463 56.7341 60.2449 55.5784 60.2449 54.4161V39.3918C60.2449 39.1772 60.4133 39.0121 60.628 39.0121H62.2988C62.5068 39.0121 62.6786 39.1772 62.6786 39.3918V54.4227C62.6786 57.0379 61.2521 58.5403 58.7722 58.5403C58.0095 58.5403 57.4085 58.5403 55.7311 57.7148L52.2705 55.7204C51.8498 55.4749 51.5007 55.1235 51.2579 54.7012C51.0152 54.2789 50.8873 53.8003 50.887 53.3132V38.0908C50.887 37.1002 51.4153 36.1756 52.2705 35.6869L65.4754 28.0691C66.3108 27.5969 67.4203 27.5969 68.2491 28.0691L81.4374 35.6902C81.8581 35.9349 82.2073 36.2857 82.45 36.7075C82.6928 37.1293 82.8207 37.6074 82.821 38.0941V53.3165C82.821 54.3038 82.2894 55.2251 81.4374 55.7204L68.2491 63.3382C67.8263 63.5816 67.3468 63.7092 66.8589 63.708" fill="#689F63"/>
<path d="M70.935 53.2257C65.163 53.2257 63.9528 50.5761 63.9528 48.3539C63.9528 48.1425 64.1232 47.9741 64.3348 47.9741H66.0387C66.2269 47.9741 66.3854 48.1112 66.4151 48.2971C66.6727 50.0333 67.4388 50.909 70.929 50.909C73.7093 50.909 74.8915 50.2809 74.8915 48.8066C74.8915 47.9579 74.5547 47.3272 70.2356 46.9046C66.6232 46.548 64.391 45.7522 64.391 42.8629C64.391 40.2014 66.6364 38.6165 70.3974 38.6165C74.6207 38.6165 76.7142 40.0826 76.9784 43.2327C76.9827 43.2857 76.9761 43.339 76.9588 43.3892C76.9416 43.4395 76.9141 43.4856 76.8781 43.5247C76.8421 43.5638 76.7984 43.5951 76.7497 43.6164C76.701 43.6377 76.6485 43.6488 76.5953 43.6488H74.8816C74.7033 43.6488 74.5481 43.5233 74.5117 43.3516C74.099 41.5256 73.1018 40.9411 70.3908 40.9411C67.3562 40.9411 67.0029 41.9978 67.0029 42.7902C67.0029 43.7511 67.419 44.0318 71.5135 44.5733C75.5684 45.1116 77.4935 45.871 77.4935 48.7207C77.4935 51.5935 75.0962 53.2412 70.9158 53.2412L70.935 53.2257Z" fill="#689F63"/>
<path d="M47.04 95.0001H44.304L39.728 88.0721V95.0001H36.992V83.7681H39.728L44.304 90.7281V83.7681H47.04V95.0001ZM53.0872 95.1281C52.2126 95.1281 51.4232 94.9415 50.7192 94.5681C50.0259 94.1948 49.4766 93.6615 49.0712 92.9681C48.6766 92.2748 48.4792 91.4641 48.4792 90.5361C48.4792 89.6188 48.6819 88.8135 49.0872 88.1201C49.4926 87.4161 50.0472 86.8775 50.7512 86.5041C51.4552 86.1308 52.2446 85.9441 53.1192 85.9441C53.9939 85.9441 54.7832 86.1308 55.4872 86.5041C56.1912 86.8775 56.7459 87.4161 57.1512 88.1201C57.5566 88.8135 57.7592 89.6188 57.7592 90.5361C57.7592 91.4535 57.5512 92.2641 57.1352 92.9681C56.7299 93.6615 56.1699 94.1948 55.4552 94.5681C54.7512 94.9415 53.9619 95.1281 53.0872 95.1281ZM53.0872 92.7601C53.6099 92.7601 54.0526 92.5681 54.4152 92.1841C54.7886 91.8001 54.9752 91.2508 54.9752 90.5361C54.9752 89.8215 54.7939 89.2721 54.4312 88.8881C54.0792 88.5041 53.6419 88.3121 53.1192 88.3121C52.5859 88.3121 52.1432 88.5041 51.7912 88.8881C51.4392 89.2615 51.2632 89.8108 51.2632 90.5361C51.2632 91.2508 51.4339 91.8001 51.7752 92.1841C52.1272 92.5681 52.5646 92.7601 53.0872 92.7601ZM58.6667 90.5201C58.6667 89.6028 58.8374 88.7975 59.1787 88.1041C59.5307 87.4108 60.0054 86.8775 60.6027 86.5041C61.2001 86.1308 61.8667 85.9441 62.6027 85.9441C63.1894 85.9441 63.7227 86.0668 64.2027 86.3121C64.6934 86.5575 65.0774 86.8881 65.3547 87.3041V83.1601H68.0907V95.0001H65.3547V93.7201C65.0987 94.1468 64.7307 94.4881 64.2507 94.7441C63.7814 95.0001 63.2321 95.1281 62.6027 95.1281C61.8667 95.1281 61.2001 94.9415 60.6027 94.5681C60.0054 94.1841 59.5307 93.6455 59.1787 92.9521C58.8374 92.2481 58.6667 91.4375 58.6667 90.5201ZM65.3547 90.5361C65.3547 89.8535 65.1627 89.3148 64.7787 88.9201C64.4054 88.5255 63.9467 88.3281 63.4027 88.3281C62.8587 88.3281 62.3947 88.5255 62.0107 88.9201C61.6374 89.3041 61.4507 89.8375 61.4507 90.5201C61.4507 91.2028 61.6374 91.7468 62.0107 92.1521C62.3947 92.5468 62.8587 92.7441 63.4027 92.7441C63.9467 92.7441 64.4054 92.5468 64.7787 92.1521C65.1627 91.7575 65.3547 91.2188 65.3547 90.5361ZM78.4861 90.3921C78.4861 90.6481 78.4701 90.9148 78.4381 91.1921H72.2461C72.2888 91.7468 72.4648 92.1735 72.7741 92.4721C73.0941 92.7601 73.4835 92.9041 73.9421 92.9041C74.6248 92.9041 75.0995 92.6161 75.3661 92.0401H78.2781C78.1288 92.6268 77.8568 93.1548 77.4621 93.6241C77.0781 94.0935 76.5928 94.4615 76.0061 94.7281C75.4195 94.9948 74.7635 95.1281 74.0381 95.1281C73.1635 95.1281 72.3848 94.9415 71.7021 94.5681C71.0195 94.1948 70.4861 93.6615 70.1021 92.9681C69.7181 92.2748 69.5261 91.4641 69.5261 90.5361C69.5261 89.6081 69.7128 88.7975 70.0861 88.1041C70.4701 87.4108 71.0035 86.8775 71.6861 86.5041C72.3688 86.1308 73.1528 85.9441 74.0381 85.9441C74.9021 85.9441 75.6701 86.1255 76.3421 86.4881C77.0141 86.8508 77.5368 87.3681 77.9101 88.0401C78.2941 88.7121 78.4861 89.4961 78.4861 90.3921ZM75.6861 89.6721C75.6861 89.2028 75.5261 88.8295 75.2061 88.5521C74.8861 88.2748 74.4861 88.1361 74.0061 88.1361C73.5475 88.1361 73.1581 88.2695 72.8381 88.5361C72.5288 88.8028 72.3368 89.1815 72.2621 89.6721H75.6861ZM81.2095 95.1281C80.7295 95.1281 80.3348 94.9895 80.0255 94.7121C79.7268 94.4241 79.5775 94.0721 79.5775 93.6561C79.5775 93.2295 79.7268 92.8721 80.0255 92.5841C80.3348 92.2961 80.7295 92.1521 81.2095 92.1521C81.6788 92.1521 82.0628 92.2961 82.3615 92.5841C82.6708 92.8721 82.8255 93.2295 82.8255 93.6561C82.8255 94.0721 82.6708 94.4241 82.3615 94.7121C82.0628 94.9895 81.6788 95.1281 81.2095 95.1281ZM85.8051 85.1441C85.3251 85.1441 84.9305 85.0055 84.6211 84.7281C84.3225 84.4401 84.1731 84.0881 84.1731 83.6721C84.1731 83.2455 84.3225 82.8935 84.6211 82.6161C84.9305 82.3281 85.3251 82.1841 85.8051 82.1841C86.2745 82.1841 86.6585 82.3281 86.9571 82.6161C87.2665 82.8935 87.4211 83.2455 87.4211 83.6721C87.4211 84.0881 87.2665 84.4401 86.9571 84.7281C86.6585 85.0055 86.2745 85.1441 85.8051 85.1441ZM87.1811 96.1521C87.1811 97.2508 86.9038 98.0401 86.3491 98.5201C85.7945 99.0108 85.0211 99.2561 84.0291 99.2561H82.9571V96.9361H83.6131C83.9118 96.9361 84.1251 96.8775 84.2531 96.7601C84.3811 96.6428 84.4451 96.4508 84.4451 96.1841V86.0721H87.1811V96.1521ZM92.7802 95.1281C92.0016 95.1281 91.3082 94.9948 90.7002 94.7281C90.0922 94.4615 89.6122 94.0988 89.2602 93.6401C88.9082 93.1708 88.7109 92.6481 88.6682 92.0721H91.3722C91.4042 92.3815 91.5482 92.6321 91.8042 92.8241C92.0602 93.0161 92.3749 93.1121 92.7482 93.1121C93.0896 93.1121 93.3509 93.0481 93.5322 92.9201C93.7242 92.7815 93.8202 92.6055 93.8202 92.3921C93.8202 92.1361 93.6869 91.9495 93.4202 91.8321C93.1536 91.7041 92.7216 91.5655 92.1242 91.4161C91.4842 91.2668 90.9509 91.1121 90.5242 90.9521C90.0976 90.7815 89.7296 90.5201 89.4202 90.1681C89.1109 89.8055 88.9562 89.3201 88.9562 88.7121C88.9562 88.2001 89.0949 87.7361 89.3722 87.3201C89.6602 86.8935 90.0762 86.5575 90.6202 86.3121C91.1749 86.0668 91.8309 85.9441 92.5882 85.9441C93.7082 85.9441 94.5882 86.2215 95.2282 86.7761C95.8789 87.3308 96.2522 88.0668 96.3482 88.9841H93.8202C93.7776 88.6748 93.6389 88.4295 93.4042 88.2481C93.1802 88.0668 92.8816 87.9761 92.5082 87.9761C92.1882 87.9761 91.9429 88.0401 91.7722 88.1681C91.6016 88.2855 91.5162 88.4508 91.5162 88.6641C91.5162 88.9201 91.6496 89.1121 91.9162 89.2401C92.1936 89.3681 92.6202 89.4961 93.1962 89.6241C93.8576 89.7948 94.3962 89.9655 94.8122 90.1361C95.2282 90.2961 95.5909 90.5628 95.9002 90.9361C96.2202 91.2988 96.3856 91.7895 96.3962 92.4081C96.3962 92.9308 96.2469 93.4001 95.9482 93.8161C95.6602 94.2215 95.2389 94.5415 94.6842 94.7761C94.1402 95.0108 93.5056 95.1281 92.7802 95.1281Z" fill="#689F63"/>
</svg>
