<svg width="30" height="20" viewBox="0 0 30 20" fill="none" xmlns="http://www.w3.org/2000/svg">
<path d="M0 0H30V20H0V0Z" fill="#009B3A"/>
<path d="M15 1.12866L26.9825 9.98246L15 18.8304L2.95909 9.98246L15 1.12866Z" fill="#FEDF00"/>
<path d="M14.9999 14.7018C17.5966 14.7018 19.7017 12.5967 19.7017 10C19.7017 7.40329 17.5966 5.29824 14.9999 5.29824C12.4032 5.29824 10.2982 7.40329 10.2982 10C10.2982 12.5967 12.4032 14.7018 14.9999 14.7018Z" fill="white"/>
<path d="M12.6257 9.69006C11.8128 9.69006 11.0233 9.81287 10.2807 10.0409C10.3157 12.6082 12.4035 14.6784 14.9766 14.6784C16.5672 14.6784 17.9766 13.883 18.8245 12.6725C17.3684 10.8596 15.1286 9.69006 12.6257 9.69006ZM19.5847 10.8772C19.6374 10.5848 19.6725 10.2865 19.6725 9.97661C19.6725 7.38012 17.5672 5.27485 14.9707 5.27485C13.035 5.27485 11.3742 6.45029 10.6491 8.11696C11.2865 7.9883 11.9415 7.91813 12.614 7.91813C15.3508 7.92398 17.8187 9.05848 19.5847 10.8772Z" fill="#002776"/>
</svg>
