<svg width="135" height="134" viewBox="0 0 135 134" fill="none" xmlns="http://www.w3.org/2000/svg">
<path d="M41.72 95.0001L39.384 90.7601H38.728V95.0001H35.992V83.7681H40.584C41.4693 83.7681 42.2213 83.9228 42.84 84.2321C43.4693 84.5415 43.9387 84.9681 44.248 85.5121C44.5573 86.0455 44.712 86.6428 44.712 87.3041C44.712 88.0508 44.4987 88.7175 44.072 89.3041C43.656 89.8908 43.0373 90.3068 42.216 90.5521L44.808 95.0001H41.72ZM38.728 88.8241H40.424C40.9253 88.8241 41.2987 88.7015 41.544 88.4561C41.8 88.2108 41.928 87.8641 41.928 87.4161C41.928 86.9895 41.8 86.6535 41.544 86.4081C41.2987 86.1628 40.9253 86.0401 40.424 86.0401H38.728V88.8241ZM54.8455 90.3921C54.8455 90.6481 54.8295 90.9148 54.7975 91.1921H48.6055C48.6482 91.7468 48.8242 92.1735 49.1335 92.4721C49.4535 92.7601 49.8428 92.9041 50.3015 92.9041C50.9842 92.9041 51.4588 92.6161 51.7255 92.0401H54.6375C54.4882 92.6268 54.2162 93.1548 53.8215 93.6241C53.4375 94.0935 52.9522 94.4615 52.3655 94.7281C51.7788 94.9948 51.1228 95.1281 50.3975 95.1281C49.5228 95.1281 48.7442 94.9415 48.0615 94.5681C47.3788 94.1948 46.8455 93.6615 46.4615 92.9681C46.0775 92.2748 45.8855 91.4641 45.8855 90.5361C45.8855 89.6081 46.0722 88.7975 46.4455 88.1041C46.8295 87.4108 47.3628 86.8775 48.0455 86.5041C48.7282 86.1308 49.5122 85.9441 50.3975 85.9441C51.2615 85.9441 52.0295 86.1255 52.7015 86.4881C53.3735 86.8508 53.8962 87.3681 54.2695 88.0401C54.6535 88.7121 54.8455 89.4961 54.8455 90.3921ZM52.0455 89.6721C52.0455 89.2028 51.8855 88.8295 51.5655 88.5521C51.2455 88.2748 50.8455 88.1361 50.3655 88.1361C49.9068 88.1361 49.5175 88.2695 49.1975 88.5361C48.8882 88.8028 48.6962 89.1815 48.6215 89.6721H52.0455ZM55.7449 90.5201C55.7449 89.6028 55.9155 88.7975 56.2569 88.1041C56.6089 87.4108 57.0835 86.8775 57.6809 86.5041C58.2782 86.1308 58.9449 85.9441 59.6809 85.9441C60.3102 85.9441 60.8595 86.0721 61.3289 86.3281C61.8089 86.5841 62.1769 86.9201 62.4329 87.3361V86.0721H65.1689V95.0001H62.4329V93.7361C62.1662 94.1521 61.7929 94.4881 61.3129 94.7441C60.8435 95.0001 60.2942 95.1281 59.6649 95.1281C58.9395 95.1281 58.2782 94.9415 57.6809 94.5681C57.0835 94.1841 56.6089 93.6455 56.2569 92.9521C55.9155 92.2481 55.7449 91.4375 55.7449 90.5201ZM62.4329 90.5361C62.4329 89.8535 62.2409 89.3148 61.8569 88.9201C61.4835 88.5255 61.0249 88.3281 60.4809 88.3281C59.9369 88.3281 59.4729 88.5255 59.0889 88.9201C58.7155 89.3041 58.5289 89.8375 58.5289 90.5201C58.5289 91.2028 58.7155 91.7468 59.0889 92.1521C59.4729 92.5468 59.9369 92.7441 60.4809 92.7441C61.0249 92.7441 61.4835 92.5468 61.8569 92.1521C62.2409 91.7575 62.4329 91.2188 62.4329 90.5361ZM66.6042 90.5361C66.6042 89.6081 66.7909 88.7975 67.1642 88.1041C67.5482 87.4108 68.0762 86.8775 68.7482 86.5041C69.4309 86.1308 70.2096 85.9441 71.0842 85.9441C72.2042 85.9441 73.1376 86.2375 73.8842 86.8241C74.6416 87.4108 75.1376 88.2375 75.3722 89.3041H72.4602C72.2149 88.6215 71.7402 88.2801 71.0362 88.2801C70.5349 88.2801 70.1349 88.4775 69.8362 88.8721C69.5376 89.2561 69.3882 89.8108 69.3882 90.5361C69.3882 91.2615 69.5376 91.8215 69.8362 92.2161C70.1349 92.6001 70.5349 92.7921 71.0362 92.7921C71.7402 92.7921 72.2149 92.4508 72.4602 91.7681H75.3722C75.1376 92.8135 74.6416 93.6348 73.8842 94.2321C73.1269 94.8295 72.1936 95.1281 71.0842 95.1281C70.2096 95.1281 69.4309 94.9415 68.7482 94.5681C68.0762 94.1948 67.5482 93.6615 67.1642 92.9681C66.7909 92.2748 66.6042 91.4641 66.6042 90.5361ZM81.8117 92.6801V95.0001H80.4197C79.4277 95.0001 78.6544 94.7601 78.0997 94.2801C77.5451 93.7895 77.2677 92.9948 77.2677 91.8961V88.3441H76.1797V86.0721H77.2677V83.8961H80.0037V86.0721H81.7957V88.3441H80.0037V91.9281C80.0037 92.1948 80.0677 92.3868 80.1957 92.5041C80.3237 92.6215 80.5371 92.6801 80.8357 92.6801H81.8117ZM84.6157 95.1281C84.1357 95.1281 83.7411 94.9895 83.4317 94.7121C83.1331 94.4241 82.9837 94.0721 82.9837 93.6561C82.9837 93.2295 83.1331 92.8721 83.4317 92.5841C83.7411 92.2961 84.1357 92.1521 84.6157 92.1521C85.0851 92.1521 85.4691 92.2961 85.7677 92.5841C86.0771 92.8721 86.2317 93.2295 86.2317 93.6561C86.2317 94.0721 86.0771 94.4241 85.7677 94.7121C85.4691 94.9895 85.0851 95.1281 84.6157 95.1281ZM89.2114 85.1441C88.7314 85.1441 88.3367 85.0055 88.0274 84.7281C87.7287 84.4401 87.5794 84.0881 87.5794 83.6721C87.5794 83.2455 87.7287 82.8935 88.0274 82.6161C88.3367 82.3281 88.7314 82.1841 89.2114 82.1841C89.6807 82.1841 90.0647 82.3281 90.3634 82.6161C90.6727 82.8935 90.8274 83.2455 90.8274 83.6721C90.8274 84.0881 90.6727 84.4401 90.3634 84.7281C90.0647 85.0055 89.6807 85.1441 89.2114 85.1441ZM90.5874 96.1521C90.5874 97.2508 90.31 98.0401 89.7554 98.5201C89.2007 99.0108 88.4274 99.2561 87.4354 99.2561H86.3634V96.9361H87.0194C87.318 96.9361 87.5314 96.8775 87.6594 96.7601C87.7874 96.6428 87.8514 96.4508 87.8514 96.1841V86.0721H90.5874V96.1521ZM96.1865 95.1281C95.4078 95.1281 94.7145 94.9948 94.1065 94.7281C93.4985 94.4615 93.0185 94.0988 92.6665 93.6401C92.3145 93.1708 92.1172 92.6481 92.0745 92.0721H94.7785C94.8105 92.3815 94.9545 92.6321 95.2105 92.8241C95.4665 93.0161 95.7812 93.1121 96.1545 93.1121C96.4958 93.1121 96.7572 93.0481 96.9385 92.9201C97.1305 92.7815 97.2265 92.6055 97.2265 92.3921C97.2265 92.1361 97.0932 91.9495 96.8265 91.8321C96.5598 91.7041 96.1278 91.5655 95.5305 91.4161C94.8905 91.2668 94.3572 91.1121 93.9305 90.9521C93.5038 90.7815 93.1358 90.5201 92.8265 90.1681C92.5172 89.8055 92.3625 89.3201 92.3625 88.7121C92.3625 88.2001 92.5012 87.7361 92.7785 87.3201C93.0665 86.8935 93.4825 86.5575 94.0265 86.3121C94.5812 86.0668 95.2372 85.9441 95.9945 85.9441C97.1145 85.9441 97.9945 86.2215 98.6345 86.7761C99.2852 87.3308 99.6585 88.0668 99.7545 88.9841H97.2265C97.1838 88.6748 97.0452 88.4295 96.8105 88.2481C96.5865 88.0668 96.2878 87.9761 95.9145 87.9761C95.5945 87.9761 95.3492 88.0401 95.1785 88.1681C95.0078 88.2855 94.9225 88.4508 94.9225 88.6641C94.9225 88.9201 95.0558 89.1121 95.3225 89.2401C95.5998 89.3681 96.0265 89.4961 96.6025 89.6241C97.2638 89.7948 97.8025 89.9655 98.2185 90.1361C98.6345 90.2961 98.9972 90.5628 99.3065 90.9361C99.6265 91.2988 99.7918 91.7895 99.8025 92.4081C99.8025 92.9308 99.6532 93.4001 99.3545 93.8161C99.0665 94.2215 98.6452 94.5415 98.0905 94.7761C97.5465 95.0108 96.9118 95.1281 96.1865 95.1281Z" fill="#61DAFB"/>
<path d="M36.3574 31.3032V58.018L49.7148 71.3755L49.7148 60.6895L44.3718 55.3466V33.9747L49.7148 28.6318L49.7148 17.9458L36.3574 31.3032Z" fill="#61DAFB"/>
<path d="M98.9636 58.0179L98.9636 31.3031L85.6062 17.9457L85.6062 28.6316L90.9492 33.9746L90.9492 55.3464L85.6062 60.6894L85.6062 71.3753L98.9636 58.0179Z" fill="#61DAFB"/>
<path d="M67.5256 47.4599C69.3517 47.4599 70.832 45.9796 70.832 44.1535C70.832 42.3275 69.3517 40.8472 67.5256 40.8472C65.6995 40.8472 64.2192 42.3275 64.2192 44.1535C64.2192 45.9796 65.6995 47.4599 67.5256 47.4599Z" fill="#61DAFB"/>
<path d="M67.5257 50.9277C77.324 50.9277 85.2672 47.8949 85.2672 44.1537C85.2672 40.4125 77.324 37.3796 67.5257 37.3796C57.7273 37.3796 49.7842 40.4125 49.7842 44.1537C49.7842 47.8949 57.7273 50.9277 67.5257 50.9277Z" stroke="#61DAFB" stroke-width="1.80106"/>
<path d="M61.659 47.5406C66.5582 56.0262 73.1563 61.3888 76.3963 59.5182C79.6362 57.6476 78.2912 49.2522 73.392 40.7666C68.4928 32.2809 61.8947 26.9184 58.6548 28.789C55.4148 30.6596 56.7599 39.055 61.659 47.5406Z" stroke="#61DAFB" stroke-width="1.80106"/>
<path d="M61.659 40.7666C56.7598 49.2522 55.4148 57.6476 58.6547 59.5182C61.8947 61.3888 68.4928 56.0262 73.3919 47.5406C78.2911 39.055 79.6362 30.6596 76.3962 28.789C73.1562 26.9184 66.5582 32.281 61.659 40.7666Z" stroke="#61DAFB" stroke-width="1.80106"/>
</svg>
