<svg width="34" height="34" viewBox="0 0 34 34" fill="none" xmlns="http://www.w3.org/2000/svg">
<circle cx="17" cy="17" r="17" fill="#1B203C"/>
<path fill-rule="evenodd" clip-rule="evenodd" d="M21.7755 13.7071C22.166 13.3166 22.166 12.6834 21.7755 12.2929C21.385 11.9024 20.7518 11.9024 20.3613 12.2929L17.0695 15.5846L13.7779 12.2931C13.3874 11.9026 12.7542 11.9026 12.3637 12.2931C11.9732 12.6837 11.9732 13.3168 12.3637 13.7074L15.6552 16.9988L12.3632 20.2907C11.9727 20.6812 11.9727 21.3144 12.3632 21.7049C12.7537 22.0954 13.3869 22.0954 13.7774 21.7049L17.0695 18.413L20.3618 21.7052C20.7523 22.0957 21.3855 22.0957 21.776 21.7051C22.1665 21.3146 22.1665 20.6814 21.776 20.2909L18.4837 16.9988L21.7755 13.7071Z" fill="#0CE5A5"/>
</svg>
